<svg xmlns="http://www.w3.org/2000/svg" xmlns:xlink="http://www.w3.org/1999/xlink" width="500" zoomAndPan="magnify" viewBox="0 0 375 374.999991" height="500" preserveAspectRatio="xMidYMid meet" version="1.2"><defs><clipPath id="dc0dec7ad9"><path d="M 33.160156 33.160156 L 342.160156 33.160156 L 342.160156 341 L 33.160156 341 Z M 33.160156 33.160156 "/></clipPath></defs><g id="0cb7a70df6"><g clip-rule="nonzero" clip-path="url(#dc0dec7ad9)"><path style=" stroke:none;fill-rule:nonzero;fill:#ffffff;fill-opacity:1;" d="M 342.160156 187.660156 C 342.160156 102.332031 272.988281 33.160156 187.660156 33.160156 C 102.332031 33.160156 33.160156 102.332031 33.160156 187.660156 C 33.160156 264.777344 89.660156 328.695312 163.519531 340.285156 L 163.519531 232.320312 L 124.292969 232.320312 L 124.292969 187.660156 L 163.519531 187.660156 L 163.519531 153.621094 C 163.519531 114.902344 186.585938 93.511719 221.878906 93.511719 C 238.78125 93.511719 256.460938 96.53125 256.460938 96.53125 L 256.460938 134.550781 L 236.980469 134.550781 C 217.789062 134.550781 211.800781 146.460938 211.800781 158.679688 L 211.800781 187.660156 L 254.652344 187.660156 L 247.800781 232.320312 L 211.800781 232.320312 L 211.800781 340.285156 C 285.664062 328.695312 342.160156 264.777344 342.160156 187.660156 "/></g></g></svg>