<svg xmlns="http://www.w3.org/2000/svg" xmlns:xlink="http://www.w3.org/1999/xlink" width="500" zoomAndPan="magnify" viewBox="0 0 375 374.999991" height="500" preserveAspectRatio="xMidYMid meet" version="1.2"><defs><clipPath id="cbdb5fc589"><path d="M 37.5 37.5 L 339 37.5 L 339 339 L 37.5 339 Z M 37.5 37.5 "/></clipPath></defs><g id="7dc4d4945c"><g clip-rule="nonzero" clip-path="url(#cbdb5fc589)"><path style=" stroke:none;fill-rule:nonzero;fill:#ffffff;fill-opacity:1;" d="M 125.816406 38.554688 C 109.777344 39.3125 98.820312 41.871094 89.246094 45.632812 C 79.335938 49.496094 70.9375 54.679688 62.578125 63.066406 C 54.222656 71.453125 49.074219 79.859375 45.238281 89.785156 C 41.527344 99.382812 39.011719 110.34375 38.304688 126.394531 C 37.597656 142.441406 37.441406 147.601562 37.519531 188.539062 C 37.597656 229.476562 37.777344 234.609375 38.554688 250.691406 C 39.320312 266.726562 41.871094 277.679688 45.632812 287.257812 C 49.503906 297.167969 54.679688 305.5625 63.070312 313.925781 C 71.460938 322.285156 79.859375 327.417969 89.808594 331.261719 C 99.398438 334.964844 110.363281 337.492188 126.410156 338.195312 C 142.457031 338.898438 147.621094 339.058594 188.546875 338.980469 C 229.472656 338.902344 234.625 338.722656 250.703125 337.960938 C 266.78125 337.195312 277.675781 334.628906 287.257812 330.882812 C 297.167969 327.007812 305.570312 321.839844 313.925781 313.445312 C 322.277344 305.050781 327.421875 296.640625 331.253906 286.707031 C 334.96875 277.121094 337.492188 266.15625 338.1875 250.121094 C 338.890625 234.03125 339.058594 228.890625 338.980469 187.960938 C 338.902344 147.027344 338.714844 141.898438 337.953125 125.820312 C 337.191406 109.746094 334.636719 98.828125 330.878906 89.242188 C 327.003906 79.332031 321.832031 70.941406 313.445312 62.574219 C 305.058594 54.210938 296.640625 49.070312 286.710938 45.246094 C 277.117188 41.535156 266.15625 39.003906 250.113281 38.3125 C 234.066406 37.617188 228.902344 37.441406 187.960938 37.519531 C 147.019531 37.597656 141.894531 37.769531 125.816406 38.554688 M 127.574219 311.074219 C 112.878906 310.4375 104.898438 307.992188 99.578125 305.949219 C 92.535156 303.234375 87.519531 299.957031 82.21875 294.707031 C 76.917969 289.457031 73.660156 284.421875 70.914062 277.394531 C 68.847656 272.074219 66.359375 264.105469 65.671875 249.40625 C 64.925781 233.519531 64.769531 228.75 64.679688 188.503906 C 64.59375 148.257812 64.746094 143.492188 65.441406 127.601562 C 66.070312 112.914062 68.527344 104.925781 70.570312 99.609375 C 73.28125 92.558594 76.550781 87.550781 81.8125 82.25 C 87.074219 76.953125 92.09375 73.691406 99.125 70.941406 C 104.4375 68.867188 112.410156 66.402344 127.101562 65.703125 C 143 64.949219 147.765625 64.796875 188.003906 64.710938 C 228.246094 64.621094 233.023438 64.773438 248.925781 65.472656 C 263.613281 66.113281 271.605469 68.546875 276.914062 70.597656 C 283.960938 73.3125 288.976562 76.570312 294.273438 81.839844 C 299.570312 87.113281 302.835938 92.113281 305.585938 99.164062 C 307.660156 104.460938 310.128906 112.429688 310.820312 127.128906 C 311.578125 143.027344 311.75 147.792969 311.824219 188.03125 C 311.894531 228.269531 311.753906 233.050781 311.058594 248.9375 C 310.414062 263.632812 307.980469 271.617188 305.929688 276.941406 C 303.21875 283.980469 299.945312 289.003906 294.683594 294.296875 C 289.417969 299.589844 284.40625 302.851562 277.367188 305.601562 C 272.0625 307.675781 264.082031 310.144531 249.398438 310.847656 C 233.503906 311.59375 228.738281 311.75 188.480469 311.835938 C 148.226562 311.925781 143.476562 311.761719 127.578125 311.074219 M 250.46875 107.679688 C 250.472656 108.273438 250.5 108.863281 250.5625 109.453125 C 250.621094 110.042969 250.707031 110.628906 250.824219 111.210938 C 250.941406 111.789062 251.085938 112.363281 251.257812 112.929688 C 251.429688 113.496094 251.632812 114.054688 251.859375 114.601562 C 252.085938 115.148438 252.339844 115.683594 252.621094 116.203125 C 252.902344 116.726562 253.207031 117.234375 253.535156 117.726562 C 253.867188 118.21875 254.21875 118.691406 254.597656 119.148438 C 254.972656 119.609375 255.371094 120.046875 255.792969 120.464844 C 256.210938 120.882812 256.648438 121.277344 257.109375 121.652344 C 257.566406 122.027344 258.042969 122.378906 258.535156 122.707031 C 259.03125 123.035156 259.539062 123.339844 260.0625 123.617188 C 260.582031 123.898438 261.121094 124.148438 261.667969 124.375 C 262.214844 124.601562 262.773438 124.800781 263.339844 124.96875 C 263.90625 125.140625 264.480469 125.285156 265.0625 125.398438 C 265.644531 125.511719 266.230469 125.597656 266.820312 125.65625 C 267.410156 125.714844 268 125.742188 268.59375 125.738281 C 269.183594 125.738281 269.777344 125.707031 270.367188 125.648438 C 270.957031 125.589844 271.539062 125.503906 272.121094 125.386719 C 272.703125 125.269531 273.277344 125.125 273.84375 124.953125 C 274.410156 124.777344 274.964844 124.578125 275.511719 124.351562 C 276.058594 124.121094 276.59375 123.867188 277.117188 123.589844 C 277.640625 123.308594 278.144531 123.003906 278.636719 122.671875 C 279.128906 122.34375 279.605469 121.988281 280.0625 121.613281 C 280.519531 121.234375 280.957031 120.835938 281.375 120.417969 C 281.792969 120 282.191406 119.558594 282.566406 119.101562 C 282.941406 118.640625 283.292969 118.164062 283.621094 117.671875 C 283.949219 117.179688 284.25 116.671875 284.53125 116.148438 C 284.808594 115.625 285.0625 115.089844 285.285156 114.542969 C 285.511719 113.992188 285.710938 113.4375 285.882812 112.867188 C 286.050781 112.300781 286.195312 111.726562 286.308594 111.144531 C 286.425781 110.566406 286.511719 109.980469 286.566406 109.390625 C 286.625 108.800781 286.652344 108.207031 286.652344 107.617188 C 286.648438 107.023438 286.621094 106.433594 286.558594 105.84375 C 286.5 105.253906 286.414062 104.667969 286.296875 104.085938 C 286.179688 103.507812 286.035156 102.933594 285.863281 102.367188 C 285.6875 101.800781 285.488281 101.242188 285.261719 100.695312 C 285.03125 100.148438 284.777344 99.613281 284.5 99.089844 C 284.21875 98.570312 283.914062 98.0625 283.582031 97.570312 C 283.253906 97.078125 282.898438 96.605469 282.523438 96.148438 C 282.144531 95.6875 281.746094 95.25 281.328125 94.832031 C 280.90625 94.414062 280.46875 94.019531 280.007812 93.644531 C 279.550781 93.269531 279.074219 92.917969 278.582031 92.589844 C 278.089844 92.261719 277.578125 91.957031 277.058594 91.679688 C 276.535156 91.402344 276 91.148438 275.449219 90.921875 C 274.902344 90.699219 274.34375 90.5 273.777344 90.328125 C 273.210938 90.15625 272.636719 90.015625 272.054688 89.902344 C 271.472656 89.785156 270.886719 89.699219 270.296875 89.644531 C 269.707031 89.585938 269.117188 89.558594 268.523438 89.558594 C 267.933594 89.5625 267.339844 89.589844 266.75 89.652344 C 266.164062 89.710938 265.578125 89.796875 264.996094 89.914062 C 264.414062 90.03125 263.84375 90.175781 263.277344 90.347656 C 262.710938 90.523438 262.152344 90.722656 261.605469 90.949219 C 261.058594 91.179688 260.523438 91.433594 260.003906 91.710938 C 259.480469 91.992188 258.972656 92.296875 258.480469 92.628906 C 257.988281 92.957031 257.515625 93.3125 257.058594 93.6875 C 256.601562 94.0625 256.164062 94.460938 255.746094 94.882812 C 255.328125 95.300781 254.929688 95.742188 254.554688 96.199219 C 254.179688 96.65625 253.828125 97.132812 253.5 97.625 C 253.171875 98.121094 252.871094 98.628906 252.589844 99.152344 C 252.3125 99.671875 252.0625 100.207031 251.835938 100.757812 C 251.609375 101.304688 251.410156 101.863281 251.242188 102.429688 C 251.070312 102.996094 250.925781 103.570312 250.8125 104.152344 C 250.699219 104.730469 250.613281 105.316406 250.554688 105.90625 C 250.496094 106.496094 250.46875 107.085938 250.46875 107.679688 M 110.847656 188.402344 C 110.929688 231.152344 145.652344 265.734375 188.394531 265.652344 C 231.136719 265.570312 265.742188 230.851562 265.660156 188.097656 C 265.578125 145.347656 230.847656 110.757812 188.097656 110.84375 C 145.347656 110.925781 110.765625 145.652344 110.847656 188.402344 M 138 188.347656 C 137.996094 186.699219 138.074219 185.058594 138.230469 183.421875 C 138.390625 181.78125 138.628906 180.15625 138.945312 178.542969 C 139.261719 176.925781 139.660156 175.332031 140.132812 173.753906 C 140.609375 172.179688 141.160156 170.628906 141.785156 169.109375 C 142.414062 167.585938 143.113281 166.101562 143.886719 164.648438 C 144.660156 163.195312 145.5 161.78125 146.414062 160.410156 C 147.324219 159.042969 148.300781 157.71875 149.34375 156.445312 C 150.382812 155.171875 151.484375 153.949219 152.648438 152.785156 C 153.808594 151.617188 155.023438 150.511719 156.292969 149.464844 C 157.5625 148.417969 158.882812 147.4375 160.25 146.519531 C 161.617188 145.601562 163.023438 144.753906 164.472656 143.976562 C 165.925781 143.199219 167.410156 142.492188 168.929688 141.859375 C 170.445312 141.226562 171.992188 140.667969 173.566406 140.1875 C 175.140625 139.707031 176.734375 139.304688 178.347656 138.980469 C 179.960938 138.65625 181.589844 138.414062 183.226562 138.246094 C 184.863281 138.082031 186.503906 138 188.152344 137.996094 C 189.796875 137.992188 191.4375 138.070312 193.078125 138.226562 C 194.714844 138.386719 196.339844 138.625 197.957031 138.941406 C 199.570312 139.261719 201.164062 139.65625 202.742188 140.132812 C 204.316406 140.605469 205.867188 141.15625 207.386719 141.78125 C 208.910156 142.410156 210.398438 143.109375 211.851562 143.882812 C 213.304688 144.65625 214.714844 145.496094 216.085938 146.410156 C 217.457031 147.320312 218.777344 148.296875 220.050781 149.339844 C 221.324219 150.382812 222.546875 151.484375 223.710938 152.644531 C 224.878906 153.804688 225.984375 155.019531 227.03125 156.292969 C 228.078125 157.5625 229.058594 158.878906 229.976562 160.246094 C 230.894531 161.613281 231.742188 163.019531 232.519531 164.472656 C 233.300781 165.921875 234.003906 167.40625 234.636719 168.925781 C 235.269531 170.445312 235.828125 171.992188 236.308594 173.566406 C 236.789062 175.140625 237.191406 176.734375 237.515625 178.347656 C 237.839844 179.960938 238.085938 181.585938 238.25 183.222656 C 238.414062 184.859375 238.496094 186.5 238.5 188.148438 C 238.503906 189.792969 238.425781 191.433594 238.269531 193.074219 C 238.109375 194.710938 237.871094 196.339844 237.554688 197.953125 C 237.238281 199.566406 236.839844 201.164062 236.367188 202.738281 C 235.890625 204.316406 235.339844 205.863281 234.714844 207.386719 C 234.085938 208.90625 233.386719 210.394531 232.613281 211.847656 C 231.839844 213.300781 231 214.710938 230.085938 216.082031 C 229.175781 217.453125 228.199219 218.773438 227.15625 220.050781 C 226.117188 221.324219 225.015625 222.542969 223.851562 223.710938 C 222.691406 224.875 221.476562 225.980469 220.207031 227.027344 C 218.9375 228.074219 217.617188 229.058594 216.25 229.972656 C 214.882812 230.890625 213.476562 231.738281 212.027344 232.515625 C 210.574219 233.296875 209.089844 234 207.570312 234.632812 C 206.054688 235.265625 204.507812 235.824219 202.933594 236.304688 C 201.359375 236.785156 199.765625 237.1875 198.152344 237.511719 C 196.539062 237.835938 194.910156 238.082031 193.273438 238.246094 C 191.636719 238.410156 189.996094 238.496094 188.347656 238.496094 C 186.703125 238.5 185.0625 238.425781 183.421875 238.265625 C 181.785156 238.109375 180.160156 237.871094 178.542969 237.554688 C 176.929688 237.234375 175.332031 236.839844 173.757812 236.363281 C 172.179688 235.890625 170.632812 235.339844 169.109375 234.710938 C 167.589844 234.085938 166.101562 233.386719 164.648438 232.613281 C 163.195312 231.839844 161.785156 230.996094 160.414062 230.085938 C 159.042969 229.175781 157.71875 228.199219 156.445312 227.15625 C 155.171875 226.113281 153.953125 225.011719 152.785156 223.851562 C 151.621094 222.691406 150.511719 221.476562 149.464844 220.203125 C 148.421875 218.933594 147.4375 217.617188 146.519531 216.25 C 145.605469 214.882812 144.757812 213.472656 143.976562 212.023438 C 143.199219 210.574219 142.492188 209.089844 141.859375 207.570312 C 141.226562 206.050781 140.671875 204.503906 140.191406 202.929688 C 139.710938 201.355469 139.308594 199.761719 138.984375 198.148438 C 138.660156 196.535156 138.414062 194.910156 138.25 193.273438 C 138.085938 191.632812 138.003906 189.992188 138 188.347656 "/></g></g></svg>