<svg xmlns="http://www.w3.org/2000/svg" xmlns:xlink="http://www.w3.org/1999/xlink" width="500" zoomAndPan="magnify" viewBox="0 0 375 374.999991" height="500" preserveAspectRatio="xMidYMid meet" version="1.2"><defs><clipPath id="3b549b1622"><path d="M 50.488281 141 L 158 141 L 158 312 L 50.488281 312 Z M 50.488281 141 "/></clipPath><clipPath id="34cc5e4201"><path d="M 124 32.976562 L 240 32.976562 L 240 291 L 124 291 Z M 124 32.976562 "/></clipPath><clipPath id="9a5120d746"><path d="M 90 115 L 324 115 L 324 341.976562 L 90 341.976562 Z M 90 115 "/></clipPath></defs><g id="a929db531b"><g clip-rule="nonzero" clip-path="url(#3b549b1622)"><path style=" stroke:none;fill-rule:nonzero;fill:#a3a3a3;fill-opacity:1;" d="M 157.1875 154.542969 L 157.1875 142.492188 C 153.050781 141.929688 148.855469 141.578125 144.570312 141.578125 C 92.957031 141.578125 50.960938 183.574219 50.960938 235.199219 C 50.960938 266.871094 66.78125 294.894531 90.929688 311.839844 C 75.347656 295.113281 65.792969 272.710938 65.792969 248.097656 C 65.792969 197.21875 106.59375 155.726562 157.195312 154.542969 Z M 157.1875 154.542969 "/></g><g clip-rule="nonzero" clip-path="url(#34cc5e4201)"><path style=" stroke:none;fill-rule:nonzero;fill:#a3a3a3;fill-opacity:1;" d="M 159.394531 290.855469 C 182.425781 290.855469 201.210938 272.53125 202.0625 249.710938 L 202.148438 45.886719 L 239.382812 45.886719 C 238.605469 41.699219 238.179688 37.390625 238.179688 32.976562 L 187.328125 32.976562 L 187.242188 236.800781 C 186.390625 259.621094 167.601562 277.945312 144.570312 277.945312 C 137.417969 277.945312 130.671875 276.15625 124.738281 273.035156 C 132.507812 283.804688 145.128906 290.855469 159.394531 290.855469 Z M 159.394531 290.855469 "/></g><path style=" stroke:none;fill-rule:nonzero;fill:#a3a3a3;fill-opacity:1;" d="M 308.9375 115.0625 L 308.9375 103.734375 C 294.734375 103.734375 281.5 99.515625 270.40625 92.273438 C 280.285156 103.617188 293.707031 111.804688 308.9375 115.0625 Z M 308.9375 115.0625 "/><path style=" stroke:none;fill-rule:nonzero;fill:#cdcfd0;fill-opacity:1;" d="M 270.410156 92.273438 C 259.585938 79.84375 253.011719 63.621094 253.011719 45.878906 L 239.390625 45.878906 C 242.976562 65.253906 254.476562 81.882812 270.410156 92.273438 Z M 270.410156 92.273438 "/><path style=" stroke:none;fill-rule:nonzero;fill:#cdcfd0;fill-opacity:1;" d="M 144.570312 192.441406 C 121 192.441406 101.816406 211.625 101.816406 235.199219 C 101.816406 251.613281 111.132812 265.878906 124.738281 273.035156 C 119.667969 266.003906 116.648438 257.40625 116.648438 248.097656 C 116.648438 224.527344 135.828125 205.34375 159.402344 205.34375 C 163.800781 205.34375 168.019531 206.070312 172.015625 207.320312 L 172.015625 155.394531 C 167.882812 154.828125 163.683594 154.480469 159.402344 154.480469 C 158.65625 154.480469 157.929688 154.519531 157.195312 154.535156 L 157.195312 194.410156 C 153.199219 193.164062 148.976562 192.433594 144.578125 192.433594 Z M 144.570312 192.441406 "/><g clip-rule="nonzero" clip-path="url(#9a5120d746)"><path style=" stroke:none;fill-rule:nonzero;fill:#cdcfd0;fill-opacity:1;" d="M 308.9375 115.0625 L 308.9375 154.589844 C 282.570312 154.589844 258.128906 146.15625 238.179688 131.835938 L 238.179688 235.199219 C 238.179688 286.820312 196.1875 328.808594 144.570312 328.808594 C 124.621094 328.808594 106.128906 322.519531 90.921875 311.839844 C 108.019531 330.199219 132.382812 341.707031 159.394531 341.707031 C 211.015625 341.707031 253.003906 299.710938 253.003906 248.097656 L 253.003906 144.746094 C 272.953125 159.066406 297.390625 167.5 323.761719 167.5 L 323.761719 116.636719 C 318.671875 116.636719 313.714844 116.085938 308.9375 115.0625 Z M 308.9375 115.0625 "/></g><path style=" stroke:none;fill-rule:nonzero;fill:#ffffff;fill-opacity:1;" d="M 238.179688 235.199219 L 238.179688 131.835938 C 258.128906 146.15625 282.570312 154.589844 308.9375 154.589844 L 308.9375 115.0625 C 293.707031 111.804688 280.285156 103.625 270.40625 92.273438 C 254.46875 81.882812 242.96875 65.261719 239.382812 45.878906 L 202.148438 45.878906 L 202.0625 249.703125 C 201.210938 272.523438 182.425781 290.847656 159.394531 290.847656 C 145.128906 290.847656 132.507812 283.800781 124.738281 273.027344 C 111.132812 265.863281 101.816406 251.597656 101.816406 235.191406 C 101.816406 211.617188 121 192.433594 144.570312 192.433594 C 148.96875 192.433594 153.191406 193.164062 157.1875 194.410156 L 157.1875 154.535156 C 106.585938 155.71875 65.785156 197.214844 65.785156 248.089844 C 65.785156 272.703125 75.339844 295.105469 90.921875 311.832031 C 106.121094 322.503906 124.621094 328.800781 144.570312 328.800781 C 196.1875 328.800781 238.179688 286.804688 238.179688 235.191406 Z M 238.179688 235.199219 "/></g></svg>