<svg xmlns="http://www.w3.org/2000/svg" xmlns:xlink="http://www.w3.org/1999/xlink" width="500" zoomAndPan="magnify" viewBox="0 0 375 374.999991" height="500" preserveAspectRatio="xMidYMid meet" version="1.2"><defs><clipPath id="da37b1d1d1"><path d="M 30.589844 29.71875 L 344.089844 29.71875 L 344.089844 345.46875 L 30.589844 345.46875 Z M 30.589844 29.71875 "/></clipPath></defs><g id="10b268a3d4"><g clip-rule="nonzero" clip-path="url(#da37b1d1d1)"><path style=" stroke:none;fill-rule:evenodd;fill:#ffffff;fill-opacity:1;" d="M 298.410156 75.570312 C 268.945312 46.015625 229.753906 29.734375 188 29.71875 C 101.957031 29.71875 31.929688 99.851562 31.898438 186.054688 C 31.882812 213.609375 39.078125 240.507812 52.738281 264.214844 L 30.589844 345.238281 L 113.339844 323.496094 C 136.136719 335.957031 161.808594 342.515625 187.929688 342.523438 L 188 342.523438 C 274.027344 342.523438 344.058594 272.382812 344.089844 186.179688 C 344.105469 144.402344 327.886719 105.128906 298.410156 75.578125 Z M 188 316.121094 L 187.945312 316.121094 C 164.667969 316.113281 141.832031 309.84375 121.910156 298.007812 L 117.171875 295.191406 L 68.066406 308.089844 L 81.171875 260.136719 L 78.085938 255.21875 C 65.101562 234.527344 58.238281 210.613281 58.253906 186.0625 C 58.28125 114.417969 116.484375 56.121094 188.050781 56.121094 C 222.703125 56.136719 255.277344 69.667969 279.773438 94.234375 C 304.273438 118.792969 317.75 151.449219 317.738281 186.167969 C 317.707031 257.820312 259.507812 316.113281 188 316.113281 Z M 259.160156 218.800781 C 255.261719 216.84375 236.085938 207.394531 232.507812 206.09375 C 228.933594 204.789062 226.335938 204.136719 223.738281 208.046875 C 221.140625 211.960938 213.664062 220.761719 211.386719 223.363281 C 209.113281 225.972656 206.835938 226.296875 202.9375 224.339844 C 199.039062 222.382812 186.472656 218.257812 171.570312 204.953125 C 159.976562 194.59375 152.148438 181.804688 149.871094 177.890625 C 147.597656 173.976562 149.632812 171.863281 151.578125 169.921875 C 153.328125 168.167969 155.476562 165.355469 157.429688 163.078125 C 159.386719 160.796875 160.027344 159.164062 161.332031 156.5625 C 162.632812 153.953125 161.980469 151.675781 161.007812 149.71875 C 160.035156 147.761719 152.238281 128.53125 148.980469 120.714844 C 145.816406 113.097656 142.597656 114.132812 140.210938 114.003906 C 137.933594 113.890625 135.335938 113.867188 132.734375 113.867188 C 130.128906 113.867188 125.90625 114.84375 122.328125 118.757812 C 118.75 122.667969 108.675781 132.121094 108.675781 151.34375 C 108.675781 170.566406 122.652344 189.148438 124.605469 191.757812 C 126.558594 194.367188 152.109375 233.820312 191.230469 250.75 C 200.535156 254.773438 207.800781 257.179688 213.46875 258.980469 C 222.808594 261.957031 231.3125 261.539062 238.03125 260.53125 C 245.527344 259.410156 261.109375 251.078125 264.355469 241.957031 C 267.605469 232.832031 267.605469 225.003906 266.632812 223.378906 C 265.660156 221.753906 263.054688 220.769531 259.15625 218.8125 Z M 259.160156 218.800781 "/></g></g></svg>