<svg xmlns="http://www.w3.org/2000/svg" xmlns:xlink="http://www.w3.org/1999/xlink" width="500" zoomAndPan="magnify" viewBox="0 0 375 374.999991" height="500" preserveAspectRatio="xMidYMid meet" version="1.2"><defs><clipPath id="5a1c4f0b9f"><path d="M 18.253906 68.667969 L 356 68.667969 L 356 306.417969 L 18.253906 306.417969 Z M 18.253906 68.667969 "/></clipPath></defs><g id="78a0254147"><g clip-rule="nonzero" clip-path="url(#5a1c4f0b9f)"><path style=" stroke:none;fill-rule:nonzero;fill:#ffffff;fill-opacity:1;" d="M 152.898438 237.71875 L 152.898438 137.371094 L 241 187.546875 Z M 348.867188 105.796875 C 344.992188 91.183594 333.570312 79.675781 319.066406 75.769531 C 292.78125 68.671875 187.375 68.671875 187.375 68.671875 C 187.375 68.671875 81.964844 68.671875 55.679688 75.769531 C 41.175781 79.675781 29.753906 91.183594 25.878906 105.796875 C 18.835938 132.285156 18.835938 187.542969 18.835938 187.542969 C 18.835938 187.542969 18.835938 242.804688 25.878906 269.292969 C 29.753906 283.90625 41.175781 295.414062 55.679688 299.320312 C 81.964844 306.417969 187.375 306.417969 187.375 306.417969 C 187.375 306.417969 292.78125 306.417969 319.066406 299.320312 C 333.570312 295.414062 344.992188 283.90625 348.867188 269.292969 C 355.914062 242.804688 355.914062 187.542969 355.914062 187.542969 C 355.914062 187.542969 355.914062 132.285156 348.867188 105.796875 "/></g></g></svg>